<?xml version="1.0" encoding="UTF-8"?>
<svg width="323px" height="34px" viewBox="0 0 323 34" version="1.1" xmlns="http://www.w3.org/2000/svg" xmlns:xlink="http://www.w3.org/1999/xlink">
    <!-- Generator: Sketch 63.1 (92452) - https://sketch.com -->
    <title>Group 38</title>
    <desc>Created with Sketch.</desc>
    <defs>
        <polygon id="path-1" points="0 70 350 70 350 0 0 0"></polygon>
    </defs>
    <g id="Page-1" stroke="none" stroke-width="1" fill="none" fill-rule="evenodd">
        <g id="Group-38" transform="translate(-13.000000, -20.000000)">
            <path d="M26.459,27.1631 C26.451,27.3411 26.442,27.4471 26.442,27.5521 C26.442,32.9611 26.446,38.3701 26.4329949,43.7781 C26.432,44.1191 26.579,44.2951 26.822,44.4751 C29.177,46.2111 31.708,47.6261 34.47,48.6001 C37.855,49.7931 41.31,50.1741 44.856,49.3981 C48.803,48.5361 52.307,46.7461 55.524,44.3521 C55.681,44.2351 55.767,43.9301 55.767,43.7111 C55.78,38.3741 55.777,33.0371 55.777,27.7001 L55.777,27.1631 C55.321,27.1631 54.945,27.1731 54.569,27.1621 C52.955,27.1111 51.333,27.1411 49.729,26.9791 C47.497,26.7561 45.489,25.8751 43.596,24.6631 C41.953,23.6121 40.231,23.6821 38.555,24.6811 C38.093,24.9561 37.649,25.2641 37.174,25.5161 C34.883,26.7291 32.416,27.1781 29.846,27.1641 C28.734,27.1581 27.623,27.1631 26.459,27.1631" id="Fill-1" fill="#2E3F73"></path>
            <path d="M48.0615,38.8174 C48.0615,42.5414 44.6115,44.7204 40.9095,44.7204 C37.1905,44.7204 34.0965,42.5414 34.0965,38.8174 L34.0965,37.0384 L34.0965,37.0214 L34.0965,37.0054 C34.0965,36.1034 34.8065,35.3724 35.7025,35.3724 C36.5985,35.3724 37.3255,36.1034 37.3255,37.0054 L37.3255,37.0214 L37.3255,38.8174 C37.3255,40.7394 38.9825,41.4724 40.9095,41.4724 C42.8195,41.4724 44.8155,40.7394 44.8155,38.8174 L44.8155,37.0554 L44.8155,37.0384 C44.8155,36.1364 45.5425,35.4054 46.4385,35.4054 C47.3345,35.4054 48.0615,36.1364 48.0615,37.0384 L48.0615,38.8174 Z" id="Fill-3" fill="#FFFFFF"></path>
            <path d="M41.0347,32.561 C41.0347,33.45 40.3137,34.171 39.4247,34.171 C38.5357,34.171 37.8147,33.45 37.8147,32.561 C37.8147,31.672 38.5357,30.951 39.4247,30.951 C40.3137,30.951 41.0347,31.672 41.0347,32.561" id="Fill-5" fill="#FFFFFF"></path>
            <path d="M44.9326,32.561 C44.9326,33.45 44.2116,34.171 43.3226,34.171 C42.4336,34.171 41.7126,33.45 41.7126,32.561 C41.7126,31.672 42.4336,30.951 43.3226,30.951 C44.2116,30.951 44.9326,31.672 44.9326,32.561" id="Fill-7" fill="#FFFFFF"></path>
            <path d="M59.0342,43.1299 C62.3032,42.6119 65.5162,39.4259 65.4752,35.2289 C65.4312,30.7469 61.9772,27.8089 59.0342,27.4039 L59.0342,43.1299 Z M23.1882,27.3939 C19.7442,27.9339 16.4622,31.4039 16.7472,35.7689 C17.0202,39.9339 20.3722,42.7989 23.1882,43.1039 L23.1882,27.3939 Z M26.4592,27.1739 C26.4512,27.3529 26.4422,27.4579 26.4422,27.5639 C26.4422,32.9719 26.4462,38.3809 26.4321949,43.7899 C26.4312,44.1309 26.5782,44.3059 26.8222,44.4849 C29.1772,46.2219 31.7082,47.6369 34.4702,48.6099 C37.8552,49.8039 41.3092,50.1849 44.8562,49.4099 C48.8032,48.5479 52.3072,46.7579 55.5242,44.3629 C55.6802,44.2469 55.7662,43.9409 55.7672,43.7219 C55.7802,38.3849 55.7772,33.0479 55.7772,27.7119 L55.7772,27.1739 C55.3212,27.1739 54.9452,27.1849 54.5692,27.1729 C52.9552,27.1229 51.3322,27.1519 49.7292,26.9909 C47.4962,26.7669 45.4892,25.8859 43.5962,24.6739 C41.9532,23.6239 40.2312,23.6929 38.5552,24.6919 C38.0932,24.9669 37.6492,25.2759 37.1742,25.5269 C34.8832,26.7409 32.4162,27.1899 29.8462,27.1749 C28.7342,27.1699 27.6232,27.1739 26.4592,27.1739 L26.4592,27.1739 Z M42.2962,53.0589 L39.9232,53.0589 C39.0202,52.9349 38.1102,52.8479 37.2152,52.6799 C32.5142,51.8019 28.3682,49.7149 24.5762,46.8579 C24.3632,46.6969 24.0742,46.5899 23.8082,46.5559 C19.1732,45.9699 15.9522,43.5259 14.2232,39.1909 C13.8632,38.2879 13.7342,37.2939 13.4992,36.3419 L13.4992,33.9689 C13.5282,33.9059 13.5762,33.8449 13.5842,33.7789 C14.2742,28.3089 19.0632,23.8239 25.1422,23.9339 C26.9372,23.9659 28.7342,23.9669 30.5282,23.9189 C32.8122,23.8569 34.9522,23.2959 36.8512,21.9469 C37.2832,21.6399 37.7892,21.4169 38.2892,21.2339 C38.8902,21.0129 39.5212,20.8769 40.1382,20.7039 L42.0802,20.7039 C43.1182,21.0769 44.2822,21.2639 45.1712,21.8599 C47.4682,23.3979 49.9662,23.9679 52.6672,23.9429 C54.3552,23.9269 56.0452,23.9069 57.7322,23.9549 C62.7402,24.0979 67.0282,27.5119 68.2982,32.3559 C68.4922,33.0959 68.5812,33.8619 68.7202,34.6159 L68.7202,36.3419 C68.6282,36.7969 68.5482,37.2539 68.4442,37.7059 C67.3192,42.5779 63.4302,45.9789 58.3442,46.5579 C58.1122,46.5839 57.8702,46.6949 57.6732,46.8269 C56.7652,47.4359 55.8942,48.1039 54.9682,48.6819 C51.8852,50.6059 48.5912,52.0219 44.9972,52.6709 C44.1022,52.8319 43.1972,52.9319 42.2962,53.0589 L42.2962,53.0589 Z" id="Fill-9" fill="#5C7EE5"></path>
            <path d="M81.1382,32.4165 C81.1382,31.9855 80.8912,31.7385 80.4602,31.7385 L79.2882,31.7385 L79.2882,27.2695 L84.0662,27.2695 C85.5152,27.2695 86.2852,27.9785 86.2852,29.0575 L86.2852,29.2725 C86.2852,29.4265 86.2552,29.6425 86.2552,29.6425 L86.3162,29.6425 C87.0562,28.5335 88.4742,26.8995 90.9712,26.8995 C92.9742,26.8995 94.5762,27.7935 95.4092,29.5815 L95.4712,29.5815 C96.3032,28.2555 98.1832,26.8995 100.5562,26.8995 C103.4532,26.8995 105.7032,28.4715 105.7032,32.8485 L105.7032,37.9965 C105.7032,38.4275 105.9502,38.6735 106.3822,38.6735 L107.5532,38.6735 L107.5532,43.1435 L102.6212,43.1435 C101.0502,43.1435 100.3712,42.4655 100.3712,40.8935 L100.3712,33.7425 C100.3712,32.5705 100.1562,31.7385 99.1382,31.7385 C97.5352,31.7385 96.6112,33.0335 96.2722,34.7905 C96.1492,35.3445 96.0872,35.9305 96.0872,36.5785 L96.0872,43.1435 L90.7552,43.1435 L90.7552,33.7425 C90.7552,32.5705 90.5392,31.7385 89.5222,31.7385 C87.9502,31.7385 87.0562,32.9715 86.6862,34.6665 C86.5632,35.2525 86.4702,35.8995 86.4702,36.5785 L86.4702,43.1435 L81.1382,43.1435 L81.1382,32.4165 Z" id="Fill-11" fill="#5C7EE5"></path>
            <path d="M117.2651,21.105 L122.1041,21.105 L118.4671,25.728 L114.7681,25.728 L117.2651,21.105 Z M115.8161,39.444 C117.2031,39.444 118.4361,37.935 118.4361,36.64 L118.4361,36.394 L117.9431,36.394 C116.2481,36.394 114.3061,36.855 114.3061,38.119 C114.3061,38.859 114.7681,39.444 115.8161,39.444 L115.8161,39.444 Z M118.1591,33.157 L118.3751,33.157 L118.3751,32.972 C118.3751,31.461 117.6661,30.906 116.3401,30.906 C115.6621,30.906 114.9531,31.061 114.9531,31.677 L114.9531,32.386 L110.0221,32.386 L110.0221,30.629 C110.0221,27.084 114.5221,26.899 116.3401,26.899 C121.8891,26.899 123.7071,29.735 123.7071,33.372 L123.7071,37.996 C123.7071,38.428 123.9531,38.674 124.3851,38.674 L125.5571,38.674 L125.5571,43.144 L120.9331,43.144 C119.3921,43.144 118.8371,42.188 118.8371,41.48 L118.8371,41.202 L118.7751,41.202 C118.7751,41.202 117.6661,43.514 114.3371,43.514 C111.3781,43.514 108.9431,41.541 108.9431,38.397 C108.9431,33.681 115.6931,33.157 118.1591,33.157 L118.1591,33.157 Z" id="Fill-13" fill="#5C7EE5"></path>
            <path d="M129.103,37.1943 C129.103,37.1943 131.322,39.4753 133.757,39.4753 C134.528,39.4753 134.959,39.2593 134.959,38.7053 C134.959,37.3803 127.007,36.9483 127.007,31.8003 C127.007,28.3793 130.182,26.8993 133.541,26.8993 C136.131,26.8993 139.706,27.6393 139.706,30.5063 L139.706,32.3853 L135.082,32.3853 L135.082,31.6153 C135.082,31.1843 134.405,30.8753 133.634,30.8753 C132.895,30.8753 132.216,31.1223 132.216,31.6153 C132.216,33.2493 140.261,33.0333 140.261,38.3663 C140.261,41.5713 137.456,43.5133 133.757,43.5133 C129.196,43.5133 126.73,40.6163 126.73,40.6163 L129.103,37.1943 Z" id="Fill-15" fill="#5C7EE5"></path>
            <path d="M158.9731,26.8994 C161.1921,26.8994 164.8291,27.7624 164.8291,30.6284 L164.8291,32.8174 L160.2051,32.8174 L160.2051,31.9854 C160.2051,31.4924 159.6201,31.3074 158.9731,31.3074 C156.7231,31.3074 155.3671,33.0024 155.3671,35.1294 C155.3671,37.8414 157.4011,38.9204 159.3731,38.9204 C161.6541,38.9204 163.7501,36.8554 163.7501,36.8554 L165.8771,40.4304 C165.8771,40.4304 163.3801,43.5134 158.8491,43.5134 C153.1781,43.5134 150.0031,39.5684 150.0031,35.1914 C150.0031,30.9994 152.9621,26.8994 158.9731,26.8994" id="Fill-17" fill="#2E3F73"></path>
            <path d="M173.7998,39.4443 C175.1868,39.4443 176.4198,37.9343 176.4198,36.6393 L176.4198,36.3933 L175.9268,36.3933 C174.2318,36.3933 172.2898,36.8553 172.2898,38.1193 C172.2898,38.8593 172.7518,39.4443 173.7998,39.4443 M176.1428,33.1563 L176.3588,33.1563 L176.3588,32.9713 C176.3588,31.4613 175.6498,30.9063 174.3238,30.9063 C173.6458,30.9063 172.9368,31.0603 172.9368,31.6773 L172.9368,32.3853 L168.0058,32.3853 L168.0058,30.6293 C168.0058,27.0843 172.5058,26.8993 174.3238,26.8993 C179.8728,26.8993 181.6918,29.7353 181.6918,33.3723 L181.6918,37.9963 C181.6918,38.4273 181.9378,38.6733 182.3688,38.6733 L183.5388,38.6733 L183.5388,43.1433 L178.9158,43.1433 C177.3748,43.1433 176.8208,42.1883 176.8208,41.4793 L176.8208,41.2023 L176.7588,41.2023 C176.7588,41.2023 175.6498,43.5133 172.3208,43.5133 C169.3618,43.5133 166.9258,41.5413 166.9258,38.3963 C166.9258,33.6803 173.6768,33.1563 176.1428,33.1563" id="Fill-19" fill="#2E3F73"></path>
            <path d="M186.5,32.4165 C186.5,31.9855 186.254,31.7385 185.822,31.7385 L184.652,31.7385 L184.652,27.2695 L189.367,27.2695 C190.816,27.2695 191.617,27.8545 191.617,29.3035 L191.617,30.1355 C191.617,30.6285 191.557,30.9375 191.557,30.9375 L191.617,30.9375 C192.295,28.7795 194.299,26.9915 196.672,26.9915 C196.98,26.9915 197.289,27.0535 197.289,27.0535 L197.289,32.2935 C197.289,32.2935 196.857,32.2015 196.211,32.2015 C194.947,32.2015 192.881,32.6015 192.111,34.9755 C191.926,35.5605 191.834,36.2695 191.834,37.1325 L191.834,43.1435 L186.5,43.1435 L186.5,32.4165 Z" id="Fill-21" fill="#2E3F73"></path>
            <path d="M204.873,39.4443 C206.26,39.4443 207.492,37.9343 207.492,36.6393 L207.492,36.3933 L207,36.3933 C205.305,36.3933 203.363,36.8553 203.363,38.1193 C203.363,38.8593 203.824,39.4443 204.873,39.4443 M207.215,33.1563 L207.432,33.1563 L207.432,32.9713 C207.432,31.4613 206.723,30.9063 205.396,30.9063 C204.719,30.9063 204.01,31.0603 204.01,31.6773 L204.01,32.3853 L199.078,32.3853 L199.078,30.6293 C199.078,27.0843 203.578,26.8993 205.396,26.8993 C210.945,26.8993 212.764,29.7353 212.764,33.3723 L212.764,37.9963 C212.764,38.4273 213.01,38.6733 213.441,38.6733 L214.613,38.6733 L214.613,43.1433 L209.99,43.1433 C208.447,43.1433 207.893,42.1883 207.893,41.4793 L207.893,41.2023 L207.832,41.2023 C207.832,41.2023 206.723,43.5133 203.393,43.5133 C200.434,43.5133 198,41.5413 198,38.3963 C198,33.6803 204.75,33.1563 207.215,33.1563" id="Fill-23" fill="#2E3F73"></path>
            <path d="M218.1602,37.1943 C218.1602,37.1943 220.3792,39.4753 222.8142,39.4753 C223.5842,39.4753 224.0152,39.2593 224.0152,38.7053 C224.0152,37.3803 216.0642,36.9483 216.0642,31.8003 C216.0642,28.3793 219.2382,26.8993 222.5972,26.8993 C225.1872,26.8993 228.7642,27.6393 228.7642,30.5063 L228.7642,32.3853 L224.1392,32.3853 L224.1392,31.6153 C224.1392,31.1843 223.4612,30.8753 222.6912,30.8753 C221.9512,30.8753 221.2732,31.1223 221.2732,31.6153 C221.2732,33.2493 229.3182,33.0333 229.3182,38.3663 C229.3182,41.5713 226.5142,43.5133 222.8142,43.5133 C218.2522,43.5133 215.7872,40.6163 215.7872,40.6163 L218.1602,37.1943 Z" id="Fill-25" fill="#2E3F73"></path>
            <path d="M240.7227,31.4302 L238.7817,31.4302 L238.7817,27.2692 L240.7227,27.2692 L240.7227,26.8992 C240.7227,21.6902 245.4397,20.9812 247.9977,20.9812 C248.9527,20.9812 249.5997,21.0742 249.5997,21.0742 L249.5997,25.5742 C249.5997,25.5742 249.2307,25.5122 248.7387,25.5122 C247.6897,25.5122 246.0567,25.6972 246.0567,27.0542 L246.0567,27.2692 L248.9847,27.2692 L248.9847,31.4302 L246.0567,31.4302 L246.0567,43.1432 L240.7227,43.1432 L240.7227,31.4302 Z" id="Fill-27" fill="#5C7EE5"></path>
            <path d="M260.1738,32.9409 C260.1738,31.9549 259.4028,30.9059 258.2948,30.9059 C256.7538,30.9059 255.9828,31.7699 255.6428,32.9409 L260.1738,32.9409 Z M258.2948,26.8989 C262.9788,26.8989 265.6308,30.1669 265.6308,34.5739 C265.6308,35.0979 265.5058,36.1779 265.5058,36.1779 L255.4898,36.1779 C255.8908,38.1809 257.4918,39.0749 259.1878,39.0749 C261.4688,39.0749 263.4098,37.4099 263.4098,37.4099 L265.5368,40.9859 C265.5368,40.9859 262.9788,43.5139 258.7558,43.5139 C253.0858,43.5139 250.0328,39.4139 250.0328,35.1909 C250.0328,30.5369 253.1778,26.8989 258.2948,26.8989 L258.2948,26.8989 Z" id="Fill-29" fill="#5C7EE5"></path>
            <path d="M268.9609,26.2524 C268.9609,25.8204 268.7149,25.5744 268.2829,25.5744 L267.1109,25.5744 L267.1109,21.1054 L272.0429,21.1054 C273.6149,21.1054 274.2929,21.7824 274.2929,23.3554 L274.2929,37.9964 C274.2929,38.4274 274.5389,38.6734 274.9709,38.6734 L276.1429,38.6734 L276.1429,43.1434 L271.2109,43.1434 C269.6389,43.1434 268.9609,42.4654 268.9609,40.8934 L268.9609,26.2524 Z" id="Fill-31" fill="#5C7EE5"></path>
            <mask id="mask-2" fill="white">
                <use xlink:href="#path-1"></use>
            </mask>
            <g id="Clip-34"></g>
            <path d="M279.687,25.42 L284.156,25.42 L284.156,21.105 L279.687,21.105 L279.687,25.42 Z M279.287,32.417 C279.287,31.985 279.041,31.739 278.609,31.739 L277.437,31.739 L277.437,27.27 L282.369,27.27 C283.941,27.27 284.619,27.947 284.619,29.52 L284.619,37.996 C284.619,38.428 284.865,38.674 285.297,38.674 L286.469,38.674 L286.469,43.144 L281.537,43.144 C279.965,43.144 279.287,42.466 279.287,40.894 L279.287,32.417 Z" id="Fill-33" fill="#5C7EE5" mask="url(#mask-2)"></path>
            <path d="M296.8887,26.8994 C299.1077,26.8994 302.7437,27.7624 302.7437,30.6284 L302.7437,32.8174 L298.1207,32.8174 L298.1207,31.9854 C298.1207,31.4924 297.5347,31.3074 296.8887,31.3074 C294.6387,31.3074 293.2817,33.0024 293.2817,35.1294 C293.2817,37.8414 295.3167,38.9204 297.2887,38.9204 C299.5707,38.9204 301.6657,36.8554 301.6657,36.8554 L303.7927,40.4304 C303.7927,40.4304 301.2947,43.5134 296.7657,43.5134 C291.0937,43.5134 287.9177,39.5684 287.9177,35.1914 C287.9177,30.9994 290.8767,26.8994 296.8887,26.8994" id="Fill-35" fill="#5C7EE5" mask="url(#mask-2)"></path>
            <path d="M314.8906,32.9409 C314.8906,31.9549 314.1196,30.9059 313.0096,30.9059 C311.4686,30.9059 310.6996,31.7699 310.3596,32.9409 L314.8906,32.9409 Z M313.0096,26.8989 C317.6956,26.8989 320.3456,30.1669 320.3456,34.5739 C320.3456,35.0979 320.2226,36.1779 320.2226,36.1779 L310.2046,36.1779 C310.6056,38.1809 312.2086,39.0749 313.9046,39.0749 C316.1856,39.0749 318.1266,37.4099 318.1266,37.4099 L320.2536,40.9859 C320.2536,40.9859 317.6956,43.5139 313.4726,43.5139 C307.8006,43.5139 304.7496,39.4139 304.7496,35.1909 C304.7496,30.5369 307.8926,26.8989 313.0096,26.8989 L313.0096,26.8989 Z" id="Fill-36" fill="#5C7EE5" mask="url(#mask-2)"></path>
            <path d="M324.3848,37.1943 C324.3848,37.1943 326.6058,39.4753 329.0388,39.4753 C329.8108,39.4753 330.2418,39.2593 330.2418,38.7053 C330.2418,37.3803 322.2888,36.9483 322.2888,31.8003 C322.2888,28.3793 325.4648,26.8993 328.8238,26.8993 C331.4118,26.8993 334.9888,27.6393 334.9888,30.5063 L334.9888,32.3853 L330.3648,32.3853 L330.3648,31.6153 C330.3648,31.1843 329.6878,30.8753 328.9158,30.8753 C328.1758,30.8753 327.4978,31.1223 327.4978,31.6153 C327.4978,33.2493 335.5428,33.0333 335.5428,38.3663 C335.5428,41.5713 332.7388,43.5133 329.0388,43.5133 C324.4788,43.5133 322.0118,40.6163 322.0118,40.6163 L324.3848,37.1943 Z" id="Fill-37" fill="#5C7EE5" mask="url(#mask-2)"></path>
        </g>
    </g>
</svg>